<svg width="133" height="119" viewBox="0 0 133 119" fill="none" xmlns="http://www.w3.org/2000/svg">
<rect x="114.266" y="91.4739" width="4.6612" height="3.06147" transform="rotate(20 114.266 91.4739)" fill="#7094FF" fill-opacity="0.75"/>
<rect x="125.046" y="67.7583" width="6.81716" height="5.21744" transform="rotate(-11 125.046 67.7583)" fill="#7094FF" fill-opacity="0.85"/>
<ellipse cx="9.49518" cy="43" rx="2.5" ry="3" fill="#7094FF" fill-opacity="0.9"/>
<circle cx="11.9952" cy="45" r="3" fill="#7094FF" fill-opacity="0.6"/>
<ellipse cx="16.4952" cy="49" rx="1.5" ry="1" fill="#7094FF" fill-opacity="0.35"/>
<circle cx="55.9952" cy="46" r="2" fill="#7094FF" fill-opacity="0.6"/>
<path d="M15.7203 110.135L11.8235 109.518L10.4096 105.835L12.8925 102.769L16.7893 103.386L18.2033 107.069L15.7203 110.135Z" fill="#7094FF" fill-opacity="0.9"/>
<path d="M78.5894 27.4501L81.6845 27.6123L79.9965 30.2117L78.5894 27.4501Z" fill="#7094FF" fill-opacity="0.75"/>
<path d="M59.9129 28.3979L60.6771 29.4497L61.9136 29.0479L61.1494 30.0997L61.9136 31.1516L60.6771 30.7498L59.9129 31.8016L59.9129 30.5015L58.6764 30.0997L59.9129 29.698L59.9129 28.3979Z" fill="#7094FF" fill-opacity="0.35"/>
<rect x="107.798" y="80.6941" width="2.50523" height="3.06147" transform="rotate(25 107.798 80.6941)" fill="#7094FF" fill-opacity="0.35"/>
<rect x="90.5505" y="61.2903" width="2.50523" height="5.21744" transform="rotate(80 90.5505 61.2903)" fill="#7094FF" fill-opacity="0.9"/>
<rect x="88.3946" y="48.3546" width="4.6612" height="5.21744" transform="rotate(-36 88.3946 48.3546)" fill="#7094FF" fill-opacity="0.6"/>
<rect x="64.679" y="24.639" width="6.81716" height="7.3734" transform="rotate(124 64.679 24.639)" fill="#7094FF" fill-opacity="0.9"/>
<rect x="19.4037" y="115.19" width="4.6612" height="5.21744" transform="rotate(137 19.4037 115.19)" fill="#7094FF" fill-opacity="0.6"/>
<rect x="105.642" y="104.41" width="11.1291" height="3.06147" transform="rotate(-162 105.642 104.41)" fill="#7094FF" fill-opacity="0.35"/>
<rect x="122.89" y="46.1986" width="8.97313" height="3.06147" transform="rotate(-39 122.89 46.1986)" fill="#7094FF" fill-opacity="0.65"/>
<rect x="81.9267" y="95.7859" width="11.1291" height="5.21744" transform="rotate(-145 81.9267 95.7859)" fill="#7094FF" fill-opacity="0.45"/>
<circle cx="20.9952" cy="98" r="2" fill="#7094FF" fill-opacity="0.35"/>
<circle cx="95.9952" cy="95" r="1" fill="#7094FF" fill-opacity="0.45"/>
<circle cx="30.9952" cy="71" r="3" fill="#7094FF" fill-opacity="0.6"/>
<path d="M52.9624 103.85L51.5291 108.261L46.891 108.261L45.4577 103.85L49.2101 101.124L52.9624 103.85Z" fill="#7094FF"/>
<path d="M74.4638 74.0077L73.6873 68.4823L79.2126 67.7058L79.9892 73.2312L74.4638 74.0077Z" fill="#7094FF" fill-opacity="0.85"/>
<path d="M23.0618 56.3005L25.242 61.4366L20.1059 63.6167L17.9257 58.4806L23.0618 56.3005Z" fill="#7094FF" fill-opacity="0.75"/>
<path d="M92.3009 26.4229L94.4233 27.8012L93.045 29.9236L90.9226 28.5453L92.3009 26.4229Z" fill="#7094FF"/>
<path d="M109.851 22.0924L107.952 20.92L105.826 21.5982L106.998 19.6994L106.32 17.5733L108.219 18.7458L110.345 18.0675L109.172 19.9663L109.851 22.0924Z" fill="#7094FF" fill-opacity="0.75"/>
<path d="M42.6928 54.1374L43.8934 56.6067L46.4003 55.4868L44.8621 57.7612L47.0854 59.3723L44.3467 59.1773L44.0631 61.9083L42.8625 59.439L40.3556 60.5589L41.8938 58.2845L39.6705 56.6734L42.4093 56.8684L42.6928 54.1374Z" fill="#7094FF" fill-opacity="0.75"/>
<path d="M34.4366 7.59169L36.1458 8.62161L37.2305 6.94666L37.1932 8.94184L39.1861 9.04377L37.4396 10.009L38.3478 11.7859L36.6386 10.756L35.5538 12.4309L35.5911 10.4358L33.5982 10.3338L35.3448 9.36858L34.4366 7.59169Z" fill="#7094FF" fill-opacity="0.85"/>
<path d="M8.43679 104.786L9.59202 104.321L9.16463 103.151L10.145 103.919L10.9443 102.964L10.7694 104.197L11.9961 104.412L10.8409 104.877L11.2683 106.047L10.2879 105.279L9.4886 106.234L9.66347 105.001L8.43679 104.786Z" fill="#7094FF" fill-opacity="0.75"/>
<path d="M27.344 9.94635L26.5346 8.12233L24.6854 8.87219L25.8603 7.25925L24.2863 6.03266L26.2706 6.24374L26.5459 4.26729L27.3552 6.09131L29.2045 5.34145L28.0295 6.95439L29.6036 8.18098L27.6192 7.9699L27.344 9.94635Z" fill="#7094FF" fill-opacity="0.75"/>
<path d="M8.71749 98.3107L9.9733 97.9743L10.0413 96.6759L10.7494 97.7663L12.0053 97.4298L11.1871 98.4402L11.8952 99.5305L10.6814 99.0646L9.86321 100.075L9.93125 98.7767L8.71749 98.3107Z" fill="#7094FF" fill-opacity="0.35"/>
<path d="M80.8724 54.0767L80.1391 55.0832L81.1214 55.8487L79.8831 55.717L79.7113 56.9504L79.2062 55.8121L78.0522 56.28L78.7854 55.2735L77.8031 54.508L79.0415 54.6397L79.2132 53.4063L79.7183 54.5446L80.8724 54.0767Z" fill="#7094FF" fill-opacity="0.35"/>
<path d="M70.2132 51.0658L68.2206 50.9589L68.0492 52.947L67.1455 51.1679L65.338 52.0135L66.4269 50.3413L64.7908 49.1987L66.7835 49.3057L66.9549 47.3175L67.8586 49.0967L69.6661 48.2511L68.5772 49.9233L70.2132 51.0658Z" fill="#7094FF" fill-opacity="0.45"/>
<path d="M114.366 10.257L112.302 11.104L111.601 13.2227L110.754 11.1581L108.635 10.4571L110.699 9.61007L111.4 7.49135L112.247 9.55601L114.366 10.257Z" fill="#7094FF" fill-opacity="0.45"/>
<rect x="64.679" y="9.54728" width="15.441" height="3.06147" transform="rotate(110 64.679 9.54728)" fill="#03A3F5" fill-opacity="0.45"/>
<rect x="45.2753" y="7.39127" width="6.81716" height="5.21744" transform="rotate(-158 45.2753 7.39127)" fill="#FC9E1C" fill-opacity="0.9"/>
<rect x="66.8349" y="9.54728" width="13.2851" height="7.3734" transform="rotate(-22 66.8349 9.54728)" fill="#FFED36" fill-opacity="0.85"/>
<rect x="114.266" y="24.639" width="2.50523" height="5.21744" transform="rotate(86 114.266 24.639)" fill="#FC9E1C" fill-opacity="0.35"/>
<circle cx="121.995" cy="86" r="1" fill="#4BC8EF" fill-opacity="0.65"/>
<path d="M73.899 17.5223L75.8177 15.3914L78.6224 15.9875L79.5085 18.7146L77.5898 20.8456L74.7851 20.2494L73.899 17.5223Z" fill="#F54721" fill-opacity="0.85"/>
<path d="M123.519 77.1242L121.036 74.058L122.45 70.3747L126.346 69.7575L128.829 72.8236L127.415 76.507L123.519 77.1242Z" fill="#480CA7" fill-opacity="0.65"/>
<path d="M37.2423 112.166L37.4904 110.89L36.3533 110.259L37.6437 110.101L37.8917 108.825L38.4412 110.003L39.7316 109.845L38.7808 110.731L39.3302 111.91L38.1931 111.279L37.2423 112.166Z" fill="#03A3F5" fill-opacity="0.9"/>
<path d="M113.371 113.64L114.241 112.674L113.591 111.548L114.779 112.077L115.649 111.11L115.513 112.403L116.701 112.932L115.429 113.202L115.293 114.495L114.643 113.37L113.371 113.64Z" fill="#F54721"/>
<path d="M45.9828 57.1286L46.522 59.1409L48.6025 59.2499L46.8553 60.3846L47.3945 62.3969L45.7754 61.0858L44.0282 62.2205L44.7748 60.2755L43.1558 58.9645L45.2362 59.0735L45.9828 57.1286Z" fill="#F54721" fill-opacity="0.45"/>
<path d="M0.349452 82.16L2.5212 81.6463L3.54496 79.6633L4.05859 81.8351L6.04157 82.8589L3.86982 83.3725L2.84606 85.3555L2.33243 83.1837L0.349452 82.16Z" fill="#C9FCBE" fill-opacity="0.65"/>
<path d="M91.2927 81.3078L89.4715 82.5976L89.2651 84.8197L87.9753 82.9985L85.7532 82.7921L87.5744 81.5024L87.7808 79.2803L89.0706 81.1015L91.2927 81.3078Z" fill="#DCBCFA" fill-opacity="0.75"/>
<path d="M55.6526 52.2542L54.2712 52.4313L53.5064 53.5952L53.3293 52.2139L52.1654 51.4491L53.5468 51.272L54.3115 50.1081L54.4886 51.4894L55.6526 52.2542Z" fill="#03A3F5" fill-opacity="0.9"/>
</svg>
